<?xml version="1.0" encoding="UTF-8" standalone="no"?>
<svg
   viewBox="0 0 22 22"
   version="1.1"
   id="svg1"
   sodipodi:docname="bomb-kill.svg"
   inkscape:version="1.3.2 (091e20ef0f, 2023-11-25, custom)"
   xmlns:inkscape="http://www.inkscape.org/namespaces/inkscape"
   xmlns:sodipodi="http://sodipodi.sourceforge.net/DTD/sodipodi-0.dtd"
   xmlns="http://www.w3.org/2000/svg"
   xmlns:svg="http://www.w3.org/2000/svg">
  <sodipodi:namedview
     id="namedview1"
     pagecolor="#ffffff"
     bordercolor="#000000"
     borderopacity="0.25"
     inkscape:showpageshadow="2"
     inkscape:pageopacity="0.0"
     inkscape:pagecheckerboard="0"
     inkscape:deskcolor="#d1d1d1"
     inkscape:zoom="28.545455"
     inkscape:cx="11"
     inkscape:cy="11"
     inkscape:current-layer="svg1" />
  <defs
     id="defs3051">
    <style
       type="text/css"
       id="current-color-scheme">.ColorScheme-Text { color: #fcfcfc; } </style>
  </defs>
  <path
     style="fill:currentColor;fill-opacity:1;stroke:none;stroke-width:0.855269"
     d="m 17.858728,4.1743879 c -1.13103,0.2314779 -2.107737,0.9080479 -2.727751,1.858046 -0.214576,-0.095764 -0.450425,-0.1516429 -0.701613,-0.1516429 -0.178764,0 -0.347261,0.034927 -0.509046,0.084986 -0.975172,-0.5918778 -2.11854,-0.9381881 -3.348989,-0.9381881 -3.5622531,0 -6.4300571,2.8539574 -6.4300571,6.3990111 0,3.545055 2.867804,6.399011 6.4300571,6.399011 3.562254,0 6.430058,-2.853956 6.430058,-6.39901 0,-1.224507 -0.347991,-2.3623553 -0.94274,-3.3328191 0.0503,-0.1610043 0.0854,-0.3286874 0.0854,-0.5065884 0,-0.3822616 -0.128156,-0.7309813 -0.339922,-1.0148431 0.459139,-0.7437673 1.188057,-1.2957452 2.054604,-1.5197652 V 4.1743879 M 6.9862372,7.1755908 C 6.173802,8.138787 5.6851553,9.38169 5.6851553,10.743373 c 0,3.07238 2.4854307,5.54581 5.5727167,5.54581 1.36784,0 2.61568,-0.486764 3.583418,-1.2948 -1.020672,1.209625 -2.551332,1.978028 -4.269961,1.978028 -3.0872862,0 -5.5727161,-2.47343 -5.5727161,-5.54581 0,-1.7106949 0.7716789,-3.2352661 1.9876243,-4.2510102"
     class="ColorScheme-Text"
     id="path1" />
</svg>
