<?xml version="1.0" encoding="UTF-8" standalone="no"?>
<svg
   viewBox="0 0 16 16"
   version="1.1"
   id="svg2"
   sodipodi:docname="float.svg"
   inkscape:version="1.3.2 (091e20ef0f, 2023-11-25, custom)"
   xmlns:inkscape="http://www.inkscape.org/namespaces/inkscape"
   xmlns:sodipodi="http://sodipodi.sourceforge.net/DTD/sodipodi-0.dtd"
   xmlns="http://www.w3.org/2000/svg"
   xmlns:svg="http://www.w3.org/2000/svg">
  <sodipodi:namedview
     id="namedview2"
     pagecolor="#ffffff"
     bordercolor="#000000"
     borderopacity="0.25"
     inkscape:showpageshadow="2"
     inkscape:pageopacity="0.0"
     inkscape:pagecheckerboard="0"
     inkscape:deskcolor="#d1d1d1"
     inkscape:zoom="39.25"
     inkscape:cx="8"
     inkscape:cy="8"
     inkscape:current-layer="svg2" />
  <defs
     id="defs1">
    <style
       type="text/css"
       id="current-color-scheme">.ColorScheme-Text { color: #fcfcfc; } </style>
  </defs>
  <path
     class="ColorScheme-Text"
     d="M 7.8252389,2.2944865 A 5.6426155,5.4275975 0 0 0 2.1826234,7.722084 5.6426155,5.4275975 0 0 0 7.8252389,13.149682 5.6426155,5.4275975 0 0 0 13.467855,7.722084 5.6426155,5.4275975 0 0 0 7.8252389,2.2944865 m 0,0.9045996 A 4.7021795,4.5229979 0 0 1 12.527419,7.722084 4.7021795,4.5229979 0 0 1 7.8252389,12.245082 4.7021795,4.5229979 0 0 1 3.1230593,7.722084 4.7021795,4.5229979 0 0 1 7.8252389,3.1990861"
     fill="currentColor"
     id="path1"
     style="stroke-width:0.922343" />
  <path
     class="ColorScheme-Text"
     d="M 12.52741,7.7220642 A 4.7021795,4.5229979 0 0 1 7.8252308,12.245062 4.7021795,4.5229979 0 0 1 3.1230512,7.7220642 4.7021795,4.5229979 0 0 1 7.8252308,3.1990663 4.7021795,4.5229979 0 0 1 12.52741,7.7220642 Z"
     fill="currentColor"
     fill-opacity="0.5"
     id="path2"
     style="stroke-width:0.922343" />
</svg>
