<?xml version="1.0" encoding="UTF-8" standalone="no"?>
<svg
   width="24"
   height="24"
   version="1.1"
   id="svg1"
   sodipodi:docname="fullscreen.svg"
   inkscape:version="1.3.2 (091e20ef0f, 2023-11-25, custom)"
   xmlns:inkscape="http://www.inkscape.org/namespaces/inkscape"
   xmlns:sodipodi="http://sodipodi.sourceforge.net/DTD/sodipodi-0.dtd"
   xmlns="http://www.w3.org/2000/svg"
   xmlns:svg="http://www.w3.org/2000/svg">
  <sodipodi:namedview
     id="namedview1"
     pagecolor="#ffffff"
     bordercolor="#000000"
     borderopacity="0.25"
     inkscape:showpageshadow="2"
     inkscape:pageopacity="0.0"
     inkscape:pagecheckerboard="0"
     inkscape:deskcolor="#d1d1d1"
     inkscape:zoom="19.666667"
     inkscape:cx="12"
     inkscape:cy="12"
     inkscape:current-layer="svg1" />
  <defs
     id="defs1">
    <style
       id="current-color-scheme"
       type="text/css">
   .ColorScheme-Text { color:#dfdfdf; } .ColorScheme-Highlight { color:#4285f4; } .ColorScheme-NeutralText { color:#ff9800; } .ColorScheme-PositiveText { color:#4caf50; } .ColorScheme-NegativeText { color:#f44336; }
  </style>
  </defs>
  <g
     transform="matrix(0.94763804,0,0,0.95290155,4.4188957,4.3767876)"
     id="g1">
    <path
       style="fill:currentColor"
       class="ColorScheme-Text"
       d="M 4,10 1,8 4,6 Z m 8,0 3,-2 -3,-2 z m -4,5 2,-3 H 6 Z M 8,1 10,4 H 6 Z m 7,6 h 1 V 9 H 15 Z M 0,7 H 1 V 9 H 0 Z m 7,8 h 2 v 1 H 7 Z M 7,0 H 9 V 1 H 7 Z M 0,16 v -5 h 1 v 4 h 4 v 1 z m 16,0 v -4 h -1 v 3 h -4 v 1 z M 16,0 V 5 H 15 V 1 H 11 V 0 Z M 0,0 V 5 H 1 V 1 H 5 V 0 Z"
       id="path1" />
  </g>
</svg>
