<?xml version="1.0" encoding="UTF-8" standalone="no"?>
<svg
   width="24"
   height="24"
   version="1"
   id="svg20"
   sodipodi:docname="osk.svg"
   inkscape:version="1.3.2 (091e20ef0f, 2023-11-25, custom)"
   xmlns:inkscape="http://www.inkscape.org/namespaces/inkscape"
   xmlns:sodipodi="http://sodipodi.sourceforge.net/DTD/sodipodi-0.dtd"
   xmlns="http://www.w3.org/2000/svg"
   xmlns:svg="http://www.w3.org/2000/svg">
  <defs
     id="defs20" />
  <sodipodi:namedview
     id="namedview20"
     pagecolor="#ffffff"
     bordercolor="#000000"
     borderopacity="0.25"
     inkscape:showpageshadow="2"
     inkscape:pageopacity="0.0"
     inkscape:pagecheckerboard="0"
     inkscape:deskcolor="#d1d1d1"
     inkscape:zoom="26.166667"
     inkscape:cx="12"
     inkscape:cy="12"
     inkscape:current-layer="svg20" />
  <rect
     style="fill:#4f4f4f;stroke-width:0.871697"
     width="11.938859"
     height="17.820761"
     x="-18.006235"
     y="-20.910379"
     rx="0.85277563"
     ry="0.891038"
     transform="matrix(0,-1,-1,0,0,0)"
     id="rect1" />
  <path
     style="opacity:0.2;stroke-width:0.871697"
     d="m 9.3268859,13.31597 a 0.89103802,0.85277564 0 0 1 -0.891038,0.852775 0.89103802,0.85277564 0 0 1 -0.891038,-0.852775 0.89103802,0.85277564 0 0 1 0.891038,-0.852776 0.89103802,0.85277564 0 0 1 0.891038,0.852776 z"
     id="path1" />
  <path
     style="opacity:0.2;stroke-width:0.871697"
     d="M 12,13.31597 A 0.89103802,0.85277564 0 0 1 11.108962,14.168745 0.89103802,0.85277564 0 0 1 10.217924,13.31597 0.89103802,0.85277564 0 0 1 11.108962,12.463194 0.89103802,0.85277564 0 0 1 12,13.31597 Z"
     id="path2" />
  <path
     style="opacity:0.2;stroke-width:0.871697"
     d="m 14.673114,13.31597 a 0.89103802,0.85277564 0 0 1 -0.891038,0.852775 0.89103802,0.85277564 0 0 1 -0.891038,-0.852775 0.89103802,0.85277564 0 0 1 0.891038,-0.852776 0.89103802,0.85277564 0 0 1 0.891038,0.852776 z"
     id="path3" />
  <path
     style="opacity:0.2;stroke-width:0.871697"
     d="M 17.346228,13.31597 A 0.89103802,0.85277564 0 0 1 16.45519,14.168745 0.89103802,0.85277564 0 0 1 15.564152,13.31597 0.89103802,0.85277564 0 0 1 16.45519,12.463194 0.89103802,0.85277564 0 0 1 17.346228,13.31597 Z"
     id="path4" />
  <rect
     style="opacity:0.2;stroke-width:0.871697"
     width="12.474532"
     height="1.7055513"
     x="5.7627339"
     y="15.874296"
     rx="0.41611475"
     ry="0.42638782"
     id="rect4" />
  <rect
     style="fill:#e4e4e4;stroke-width:0.871697"
     width="12.474532"
     height="1.7055513"
     x="5.7627339"
     y="15.447908"
     rx="0.41611475"
     ry="0.42638782"
     id="rect5" />
  <path
     style="opacity:0.2;stroke-width:0.871697"
     d="M 15.564152,9.904867 A 0.89103802,0.85277564 0 0 1 14.673114,10.757643 0.89103802,0.85277564 0 0 1 13.782076,9.904867 0.89103802,0.85277564 0 0 1 14.673114,9.0520913 0.89103802,0.85277564 0 0 1 15.564152,9.904867 Z"
     id="path5" />
  <path
     style="opacity:0.2;stroke-width:0.871697"
     d="M 7.5448099,9.904867 A 0.89103802,0.85277564 0 0 1 6.6537719,10.757643 0.89103802,0.85277564 0 0 1 5.7627339,9.904867 0.89103802,0.85277564 0 0 1 6.6537719,9.0520913 0.89103802,0.85277564 0 0 1 7.5448099,9.904867 Z"
     id="path6" />
  <path
     style="opacity:0.2;stroke-width:0.871697"
     d="M 10.217924,9.904867 A 0.89103802,0.85277564 0 0 1 9.3268859,10.757643 0.89103802,0.85277564 0 0 1 8.4358479,9.904867 0.89103802,0.85277564 0 0 1 9.3268859,9.0520913 0.89103802,0.85277564 0 0 1 10.217924,9.904867 Z"
     id="path7" />
  <path
     style="opacity:0.2;stroke-width:0.871697"
     d="M 12.891038,9.904867 A 0.89103802,0.85277564 0 0 1 12,10.757643 0.89103802,0.85277564 0 0 1 11.108962,9.904867 0.89103802,0.85277564 0 0 1 12,9.0520913 0.89103802,0.85277564 0 0 1 12.891038,9.904867 Z"
     id="path8" />
  <path
     style="opacity:0.2;stroke-width:0.871697"
     d="M 18.237266,9.904867 A 0.89103802,0.85277564 0 0 1 17.346228,10.757643 0.89103802,0.85277564 0 0 1 16.45519,9.904867 0.89103802,0.85277564 0 0 1 17.346228,9.0520913 0.89103802,0.85277564 0 0 1 18.237266,9.904867 Z"
     id="path9" />
  <g
     style="fill:#e4e4e4"
     id="g18"
     transform="matrix(0.89103802,0,0,0.85277564,1.3075438,1.8034984)">
    <path
       d="M 9,13 A 1,1 0 0 1 8,14 1,1 0 0 1 7,13 1,1 0 0 1 8,12 1,1 0 0 1 9,13 Z"
       id="path10" />
    <path
       d="m 12,13 a 1,1 0 0 1 -1,1 1,1 0 0 1 -1,-1 1,1 0 0 1 1,-1 1,1 0 0 1 1,1 z"
       id="path11" />
    <path
       d="m 15,13 a 1,1 0 0 1 -1,1 1,1 0 0 1 -1,-1 1,1 0 0 1 1,-1 1,1 0 0 1 1,1 z"
       id="path12" />
    <path
       d="m 18,13 a 1,1 0 0 1 -1,1 1,1 0 0 1 -1,-1 1,1 0 0 1 1,-1 1,1 0 0 1 1,1 z"
       id="path13" />
    <path
       d="m 16,9 a 1,1 0 0 1 -1,1 1,1 0 0 1 -1,-1 1,1 0 0 1 1,-1 1,1 0 0 1 1,1 z"
       id="path14" />
    <path
       d="M 7,9 A 1,1 0 0 1 6,10 1,1 0 0 1 5,9 1,1 0 0 1 6,8 1,1 0 0 1 7,9 Z"
       id="path15" />
    <path
       d="M 10,9 A 1,1 0 0 1 9,10 1,1 0 0 1 8,9 1,1 0 0 1 9,8 1,1 0 0 1 10,9 Z"
       id="path16" />
    <path
       d="m 13,9 a 1,1 0 0 1 -1,1 1,1 0 0 1 -1,-1 1,1 0 0 1 1,-1 1,1 0 0 1 1,1 z"
       id="path17" />
    <path
       d="m 19,9 a 1,1 0 0 1 -1,1 1,1 0 0 1 -1,-1 1,1 0 0 1 1,-1 1,1 0 0 1 1,1 z"
       id="path18" />
  </g>
  <path
     style="opacity:0.1;fill:#ffffff;stroke-width:0.871697"
     d="m 3.9806578,6.0673766 c -0.493635,0 -0.891038,0.3803379 -0.891038,0.8527756 v 0.4263879 c 0,-0.4724377 0.397403,-0.8527757 0.891038,-0.8527757 H 20.019342 c 0.493635,0 0.891038,0.380338 0.891038,0.8527757 V 6.9201522 c 0,-0.4724377 -0.397403,-0.8527756 -0.891038,-0.8527756 z"
     id="path19" />
  <path
     style="opacity:0.2;stroke-width:0.871697"
     d="m 3.0896198,17.15346 v 0.426388 c 0,0.472437 0.397403,0.852775 0.891038,0.852775 H 20.019342 c 0.493635,0 0.891038,-0.380338 0.891038,-0.852775 V 17.15346 c 0,0.472438 -0.397403,0.852776 -0.891038,0.852776 H 3.9806578 c -0.493635,0 -0.891038,-0.380338 -0.891038,-0.852776 z"
     id="path20" />
</svg>
